# Made using Asset Forge (www.assetforge.io) version 1.2.1 

mtllib Cube.mtl 

v 0.5 -0.5 0.5
v 0.5 -0.5 -0.5
v -0.5 -0.5 0.5
v -0.5 -0.5 -0.5
v -0.5 0.5 -0.5
v -0.5 0.5 0.5
v 0.5 0.5 -0.5
v 0.5 0.5 0.5
vn 0 -1 0
vn -1 0 0
vn 0 0 -1
vn 0 0 1
vn 1 0 0
vn 0 1 0
vt 0 0
vt 0 1
vt 1 0
vt 1 1

usemtl _defaultMat (Instance)
usemap _defaultMat (Instance)
f 3/3/1 2/2/1 1/1/1
f 2/2/1 3/3/1 4/4/1
f 3/3/2 5/2/2 4/1/2
f 5/2/2 3/3/2 6/4/2
f 5/4/3 2/1/3 4/3/3
f 2/1/3 5/4/3 7/2/3
f 8/4/4 3/1/4 1/3/4
f 3/1/4 8/4/4 6/2/4
f 8/2/5 2/3/5 7/4/5
f 2/3/5 8/2/5 1/1/5
f 5/3/6 8/2/6 7/1/6
f 8/2/6 5/3/6 6/4/6
