# Made using Asset Forge (www.assetforge.io) version 1.2.1 

mtllib Mine.mtl 

v 0.3 0 0.3
v 0.3 0 -0.3
v -0.3 0 0.3
v -0.3 0 -0.3
v -1.12E-08 0.7 3.73E-09
vn 0 -0.7 0
vn -0.5366563 0.3130495 0
vn 0 0.3130495 0.5366563
vn 0 0.3130495 -0.5366563
vn 0.5366563 0.3130495 0
vt -0.3 -0.3
vt -0.3 0.3
vt 0.3 -0.3
vt 0.3 0.3
vt -0.3 0
vt 3.73E-09 0.7
vt 0.3 0
vt -1.12E-08 0.7
vt 1.12E-08 0.7
vt -3.73E-09 0.7

usemtl customMaterial1
usemap customMaterial1
f 3/3/1 2/2/1 1/1/1
f 2/2/1 3/3/1 4/4/1
f 3/7/2 5/6/2 4/5/2
f 5/8/3 3/5/3 1/7/3
f 5/9/4 2/5/4 4/7/4
f 1/5/5 2/7/5 5/10/5
v -1.082867E-16 -0.7 3.73E-09
vn 0 0.7 0
vn 0.5366563 -0.3130495 0
vn 0 -0.3130495 0.5366563
vn 0 -0.3130495 -0.5366563
vn -0.5366563 -0.3130495 0
vt -3.73E-09 -0.7
vt -1.082867E-16 -0.7
vt 1.082867E-16 -0.7
vt 3.73E-09 -0.7

usemtl customMaterial1
usemap customMaterial1
f 1/2/6 4/3/6 3/4/6
f 4/3/6 1/2/6 2/1/6
f 1/5/7 6/11/7 2/7/7
f 6/12/8 1/7/8 3/5/8
f 6/13/9 4/7/9 2/5/9
f 3/7/10 4/5/10 6/14/10
v 0.3 -0.3 -0.1
v 0.3 0.3 -0.09999997
v -0.3 -0.3 -0.1
v -0.3 0.3 -0.09999997
v -2.24E-08 -1.192093E-07 0.7000001
vn 0 1.192093E-07 -0.8000001
vn -0.5366563 -2.980232E-08 0.3577709
vn 0 -0.5366564 0.3577709
vn 0 0.5366564 0.357771
vn 0.5366563 -2.980232E-08 0.3577709
vt -0.3 -0.3
vt -0.3 0.3
vt 0.3 -0.3
vt 0.3 0.3
vt -0.09999996 0.3
vt 0.7000001 -9.536743E-08
vt -0.1 -0.3
vt -0.3 0.1
vt 0.3 0.1
vt 2.24E-08 -0.7000001
vt 0.3 -0.09999996
vt -0.3 -0.09999996
vt 2.24E-08 0.7000001
vt -0.7000001 -9.536743E-08
vt 0.09999996 0.3
vt 0.1 -0.3

usemtl customMaterial1
usemap customMaterial1
f 9/17/11 8/16/11 7/15/11
f 8/16/11 9/17/11 10/18/11
f 9/21/12 11/20/12 10/19/12
f 11/24/13 9/23/13 7/22/13
f 11/27/14 8/26/14 10/25/14
f 7/30/15 8/29/15 11/28/15
v 0.3 0.3 0.09999997
v 0.3 -0.3 0.1
v -0.3 0.3 0.09999997
v -0.3 -0.3 0.1
v 1.082867E-16 -1.192093E-07 -0.7000001
vn 0 1.192093E-07 0.8000001
vn -0.5366563 -2.980232E-08 -0.3577709
vn 0 0.5366564 -0.357771
vn 0 -0.5366564 -0.3577709
vn 0.5366563 -2.980232E-08 -0.3577709
vt 0.3 0.3
vt 0.3 -0.3
vt -0.3 0.3
vt -0.3 -0.3
vt -0.3 0.09999996
vt 0.3 0.09999996
vt -1.082867E-16 -0.7000001
vt 0.3 -0.1
vt -0.3 -0.1
vt -1.082867E-16 0.7000001

usemtl customMaterial1
usemap customMaterial1
f 14/33/16 13/32/16 12/31/16
f 13/32/16 14/33/16 15/34/16
f 14/29/17 16/28/17 15/30/17
f 16/37/18 14/36/18 12/35/18
f 16/40/19 13/39/19 15/38/19
f 12/19/20 13/21/20 16/20/20
v -0.1 -0.3 0.3
v -0.1 -0.3 -0.3000001
v -0.09999997 0.3 0.3
v -0.09999997 0.3 -0.3000001
v 0.7000001 -1.192093E-07 -5.96E-08
vn -0.8000001 1.192093E-07 0
vn 0.357771 0.5366564 0
vn 0.3577709 -2.980232E-08 0.5366563
vn 0.3577709 -2.980232E-08 -0.5366563
vn 0.3577709 -0.5366564 0
vt 0.3 -0.3
vt -0.3000001 -0.3
vt 0.3 0.3
vt -0.3000001 0.3
vt 0.09999996 -0.3000001
vt -0.7000001 -5.96E-08
vt 0.09999996 0.3
vt -0.7000001 5.96E-08
vt 0.1 0.3000001
vt 0.1 -0.3

usemtl customMaterial1
usemap customMaterial1
f 19/43/21 18/42/21 17/41/21
f 18/42/21 19/43/21 20/44/21
f 19/47/22 21/46/22 20/45/22
f 21/20/23 19/19/23 17/21/23
f 21/28/24 18/30/24 20/29/24
f 17/50/25 18/49/25 21/48/25
v 0.09999997 0.3 0.3
v 0.09999997 0.3 -0.3
v 0.1 -0.3 0.3
v 0.1 -0.3 -0.3
v -0.7000001 -1.192093E-07 -2.165734E-16
vn 0.8000001 1.192093E-07 0
vn -0.3577709 -0.5366564 0
vn -0.3577709 -2.980232E-08 0.5366563
vn -0.3577709 -2.980232E-08 -0.5366563
vn -0.357771 0.5366564 0
vt -0.1 0.3
vt 0.7000001 2.165734E-16
vt -0.1 -0.3
vt 0.7000001 -2.165734E-16
vt -0.09999996 -0.3
vt -0.09999996 0.3

usemtl customMaterial1
usemap customMaterial1
f 24/34/26 23/31/26 22/33/26
f 23/31/26 24/34/26 25/32/26
f 24/53/27 26/52/27 25/51/27
f 26/28/28 24/30/28 22/29/28
f 26/20/29 23/19/29 25/21/29
f 22/56/30 23/55/30 26/54/30
v 0.4253254 0.2628655 2.887646E-15
v 0.5 0 2.887646E-15
v 0.4045085 0.1545085 0.25
v 0.1545085 0.25 -0.4045085
v 0.4045085 0.1545085 -0.25
v 0.25 0.4045084 -0.1545085
v 1.082867E-15 0.4253254 -0.2628655
v 0.2628655 0 0.4253254
v 0.1545085 0.25 0.4045085
v -0.25 -0.4045085 0.1545085
v -0.25 -0.4045085 -0.1545085
v -0.4253254 -0.2628656 2.887646E-15
v 0.25 0.4045084 0.1545085
v 1.082867E-15 0.5 2.887646E-15
v 0.1545085 -0.25 0.4045085
v 0.25 -0.4045085 0.1545085
v 1.082867E-15 -0.4253254 0.2628655
v 0.1545085 -0.25 -0.4045085
v 0.4045085 -0.1545085 -0.25
v 0.2628655 0 -0.4253254
v 1.082867E-15 -0.4253254 -0.2628655
v -0.1545085 -0.25 -0.4045085
v 1.082867E-15 0 0.5
v -0.1545085 -0.25 0.4045085
v -0.2628655 0 0.4253254
v -0.25 0.4045084 -0.1545085
v -0.25 0.4045084 0.1545085
v -0.4253254 0.2628655 2.887646E-15
v -0.2628655 0 -0.4253254
v 1.082867E-15 0 -0.5
v -0.5 0 2.887646E-15
v -0.4045085 0.1545085 0.25
v 0.25 -0.4045085 -0.1545085
v 1.082867E-15 -0.5 2.887646E-15
v 0.4253254 -0.2628656 2.887646E-15
v 0.4045085 -0.1545085 0.25
v -0.4045085 -0.1545085 -0.25
v -0.4045085 0.1545085 -0.25
v -0.4045085 -0.1545085 0.25
v -0.1545085 0.25 -0.4045085
v 1.082867E-15 0.4253254 0.2628655
v -0.1545085 0.25 0.4045085
vn 0.9435221 0.2680349 0.1947387
vn 0.9505884 0.1356935 0.2792293
vn 0.505635 0.5623999 -0.6542473
vn 0.6542475 0.505635 -0.5623998
vn 0.5623999 0.6542475 -0.5056348
vn 0.4518026 0.6713592 -0.5874958
vn 0.315094 0.7487835 -0.5831286
vn 0.5874959 0.4518025 0.6713591
vn 0.5831288 0.3150938 0.7487834
vn -0.4987859 -0.8667253 0
vn -0.6284283 -0.7778675 0
vn 0.4043472 0.909982 -0.09184758
vn 0.4043472 0.909982 0.09184758
vn 0.2557348 0.9667469 0
vn 0.4518024 -0.6713591 0.5874959
vn 0.3150938 -0.7487834 0.5831288
vn 0.5874959 -0.4518024 -0.6713591
vn 0.5831288 -0.3150938 -0.7487834
vn -0.3150938 -0.7487834 -0.5831288
vn -0.4518024 -0.6713591 -0.5874959
vn -0.1356935 -0.2792293 0.9505884
vn -0.2680349 -0.1947387 0.9435221
vn -0.4987859 0.8667253 0
vn -0.6284282 0.7778676 0
vn -0.2680349 -0.1947387 -0.9435221
vn -0.1356935 -0.2792293 -0.9505884
vn -0.9505884 0.1356935 0.2792293
vn -0.9435221 0.2680349 0.1947387
vn -0.7487834 0.5831288 0.3150939
vn -0.6713591 0.587496 0.4518024
vn 0.4043472 -0.9099821 0.09184759
vn 0.4043471 -0.9099821 -0.09184757
vn 0.2557346 -0.966747 0
vn 0.9099821 0.0918476 -0.4043472
vn 0.9099821 -0.09184759 -0.4043472
vn 0.966747 0 -0.2557346
vn 0.7487835 -0.5831288 0.3150939
vn 0.6713591 -0.5874959 0.4518024
vn -0.0918476 -0.4043472 -0.9099821
vn 0.0918476 -0.4043472 -0.9099821
vn 0 -0.2557346 -0.966747
vn -0.8667253 0 -0.498786
vn -0.7778675 0 -0.6284283
vn -0.5623999 -0.6542475 -0.505635
vn -0.505635 -0.5623999 -0.6542475
vn -0.6542475 -0.505635 -0.5623998
vn 0 -0.4987859 -0.8667253
vn 0 -0.6284283 -0.7778675
vn 0.2680349 0.1947387 0.9435221
vn 0.1356935 0.2792293 0.9505884
vn 0.2792293 -0.9505884 -0.1356934
vn 0.1947387 -0.9435222 -0.2680349
vn -0.9099821 -0.09184759 -0.4043472
vn -0.9099821 0.0918476 -0.4043472
vn -0.966747 0 -0.2557346
vn -0.6713591 -0.587496 0.4518025
vn -0.7487835 -0.5831288 0.3150939
vn 0.9505884 -0.1356935 0.2792293
vn 0.9435221 -0.2680349 0.1947387
vn 0.1356935 -0.2792293 -0.9505884
vn 0.2680349 -0.1947387 -0.9435221
vn 0.5874959 -0.4518024 0.6713591
vn 0.5831288 -0.3150938 0.7487834
vn 0.0918476 -0.4043472 0.9099821
vn -0.0918476 -0.4043472 0.9099821
vn 0 -0.2557346 0.966747
vn -0.505635 -0.5623999 0.6542475
vn -0.5623998 -0.6542475 0.505635
vn -0.6542473 -0.5056349 0.5623998
vn -0.9505884 0.1356935 -0.2792293
vn -0.9435221 0.2680349 -0.1947387
vn -0.9099821 -0.09184759 0.4043472
vn -0.966747 0 0.2557346
vn -0.9099821 0.0918476 0.4043472
vn -0.4518024 -0.6713591 0.5874959
vn -0.3150938 -0.7487834 0.5831288
vn -0.9435221 -0.2680349 -0.1947387
vn -0.9505884 -0.1356935 -0.2792293
vn 0.4987859 -0.8667253 0
vn 0.6284283 -0.7778675 0
vn 0 0.498786 -0.8667253
vn 0 0.6284283 -0.7778675
vn -0.4518026 0.6713591 -0.5874959
vn -0.315094 0.7487835 -0.5831286
vn 0.9435221 0.2680349 -0.1947387
vn 0.9505884 0.1356935 -0.2792293
vn 0.9505884 -0.1356935 -0.2792293
vn 0.9435221 -0.2680349 -0.1947387
vn -0.315094 0.7487835 0.5831287
vn -0.4518025 0.6713592 0.5874958
vn -0.2680349 0.1947387 -0.9435221
vn -0.1356935 0.2792293 -0.9505884
vn 0 -0.4987859 0.8667253
vn 0 -0.6284283 0.7778675
vn -0.1947389 0.9435221 -0.2680349
vn -0.2792295 0.9505884 -0.1356935
vn -0.5831288 0.3150938 0.7487834
vn -0.5874959 0.4518025 0.6713591
vn 0.8667253 0 0.498786
vn 0.7778675 0 0.6284283
vn -0.4043472 -0.9099821 0.09184759
vn -0.2557346 -0.966747 0
vn -0.4043472 -0.9099821 -0.09184759
vn -0.9435221 -0.2680349 0.1947387
vn -0.9505884 -0.1356935 0.2792293
vn -0.1356935 0.2792293 0.9505884
vn -0.2680349 0.1947387 0.9435221
vn -0.6713591 0.5874959 -0.4518024
vn -0.7487834 0.5831288 -0.3150939
vn 0.2792295 0.9505884 0.1356935
vn 0.1947389 0.9435221 0.2680349
vn 0.8667253 0 -0.498786
vn 0.7778675 0 -0.6284283
vn 0.1947387 -0.9435222 0.2680349
vn 0.2792293 -0.9505884 0.1356934
vn -0.5056349 0.5623999 0.6542473
vn -0.6542475 0.505635 0.5623998
vn -0.5623998 0.6542475 0.5056348
vn 0.1947389 0.9435221 -0.2680349
vn 0.2792295 0.9505884 -0.1356935
vn 0.505635 -0.5623999 -0.6542475
vn 0.5623999 -0.6542475 -0.505635
vn 0.6542474 -0.505635 -0.5623999
vn -0.6713591 -0.5874959 -0.4518024
vn -0.7487835 -0.5831288 -0.3150939
vn 0.6713591 0.587496 -0.4518024
vn 0.7487834 0.5831288 -0.3150939
vn 0.2680349 -0.1947387 0.9435221
vn 0.1356935 -0.2792293 0.9505884
vn -0.2792293 -0.9505884 -0.1356934
vn -0.1947387 -0.9435222 -0.2680349
vn 0.4518024 -0.6713591 -0.5874959
vn 0.3150938 -0.7487834 -0.5831288
vn 0.1356935 0.2792293 -0.9505884
vn 0.2680349 0.1947387 -0.9435221
vn -0.8667253 0 0.498786
vn -0.7778675 0 0.6284283
vn 0.6542473 0.5056349 0.5623998
vn 0.5056349 0.5623999 0.6542473
vn 0.5623999 0.6542475 0.5056348
vn -0.2792295 0.9505884 0.1356935
vn -0.1947389 0.9435221 0.2680349
vn 0.9099821 0.0918476 0.4043472
vn 0.966747 0 0.2557346
vn 0.9099821 -0.09184759 0.4043472
vn 0.5623999 -0.6542475 0.505635
vn 0.5056349 -0.5623998 0.6542473
vn 0.6542475 -0.505635 0.5623998
vn -0.5874959 0.4518025 -0.6713591
vn -0.5831288 0.3150938 -0.7487834
vn 0.0918476 0.4043472 0.9099821
vn 0 0.2557346 0.966747
vn -0.0918476 0.4043472 0.9099821
vn 0.4987859 0.8667253 0
vn 0.6284282 0.7778676 0
vn -0.4043472 0.9099821 -0.0918476
vn -0.2557348 0.9667469 0
vn -0.4043472 0.909982 0.09184758
vn 0.4518026 0.6713591 0.5874959
vn 0.315094 0.7487835 0.5831286
vn -0.5874959 -0.4518024 -0.6713591
vn -0.5831288 -0.3150938 -0.7487834
vn 0.6713591 -0.587496 -0.4518025
vn 0.7487835 -0.5831288 -0.3150939
vn -0.1947387 -0.9435222 0.2680349
vn -0.2792293 -0.9505884 0.1356934
vn -0.0918476 0.4043472 -0.9099821
vn 0 0.2557346 -0.966747
vn 0.0918476 0.4043472 -0.9099821
vn -0.6542475 0.505635 -0.5623998
vn -0.505635 0.5623999 -0.6542473
vn -0.5623998 0.6542475 -0.5056348
vn -0.5874959 -0.4518024 0.6713591
vn -0.5831288 -0.3150938 0.7487834
vn 0.6713591 0.5874959 0.4518024
vn 0.7487834 0.5831288 0.3150939
vn 0 0.498786 0.8667253
vn 0 0.6284283 0.7778675
vn 0.5831288 0.3150938 -0.7487834
vn 0.5874959 0.4518025 -0.6713591
vt -2.887646E-15 0.2628655
vt -2.887646E-15 0
vt -0.25 0.1545085
vt -0.1545085 -0.4045085
vt -0.4045085 -0.25
vt -0.25 -0.1545085
vt -1.082867E-15 -0.2628655
vt 0.4045085 0.1545085
vt 0.2628655 0
vt 0.1545085 0.25
vt 0.25 -0.1545085
vt 0.25 0.1545085
vt 0.4253254 -2.887646E-15
vt -0.25 0.1545085
vt -1.082867E-15 2.887646E-15
vt -0.1545085 -0.25
vt -0.4045085 -0.1545085
vt -0.2628655 0
vt -1.082867E-15 0.2628655
vt 0.1545085 0.4045085
vt 1.082867E-15 0
vt 0.4253254 2.887646E-15
vt 0.1545085 -0.25
vt -1.082867E-15 0
vt 2.887646E-15 0
vt 2.887646E-15 0.2628655
vt 0.25 0.1545085
vt 0.1545085 0.4045084
vt -1.082867E-15 -2.887646E-15
vt 0.25 -0.1545085
vt -2.887646E-15 -0.2628656
vt -0.25 -0.1545085
vt -0.4253254 0
vt 0.25 -0.4045085
vt 0.4045085 -0.1545085
vt -1.082867E-15 -0.4253254
vt 0.1545085 -0.4045085
vt 2.887646E-15 -0.2628656
vt -0.25 -0.4045085
vt -0.4253254 -2.887646E-15
vt -0.1545085 0.25
vt -1.082867E-15 0.4253254
vt 1.082867E-15 -0.4253254
vt -0.4045085 0.1545085
vt -0.1545085 0.4045084
vt 0.4253254 0
vt 0.4045085 0.25
vt -0.1545085 0.4045085
vt -0.4045085 0.25
vt -0.4253254 2.887646E-15
vt 0.4045085 -0.25
vt 1.082867E-15 0.4253254

usemtl _defaultMat (Instance)
usemap _defaultMat (Instance)
f 29/59/32 28/58/32 27/57/31
f 32/62/35 31/61/34 30/60/33
f 33/63/37 32/62/36 30/60/36
f 35/66/38 34/65/39 29/64/38
f 38/69/41 37/68/40 36/67/40
f 40/71/44 39/70/43 32/62/42
f 43/63/46 42/62/45 41/60/45
f 46/74/48 45/73/47 44/72/47
f 37/68/50 48/76/50 47/75/49
f 51/74/52 50/72/51 49/77/51
f 54/78/54 53/68/53 52/67/53
f 56/80/56 48/79/56 55/65/55
f 58/83/57 54/82/58 57/81/57
f 58/83/60 53/84/60 54/82/59
f 60/85/63 59/70/62 42/62/61
f 28/58/66 45/86/65 31/83/64
f 62/88/68 42/60/68 61/87/67
f 56/80/71 44/72/70 48/79/69
f 64/59/72 55/89/73 63/88/72
f 63/91/76 48/79/75 37/90/74
f 44/72/77 47/92/78 48/79/77
f 35/66/80 49/77/80 34/65/79
f 47/75/82 59/70/81 60/85/81
f 57/81/85 64/59/84 63/88/83
f 65/86/86 38/94/87 36/93/86
f 62/88/88 61/87/89 28/58/88
f 46/74/91 44/72/90 56/80/90
f 34/65/93 41/79/92 62/91/92
f 49/77/96 50/72/95 41/79/94
f 65/73/99 36/95/98 50/72/97
f 54/82/101 64/59/100 57/81/100
f 58/83/104 57/81/103 65/86/102
f 36/67/105 43/63/106 50/93/105
f 57/81/108 63/88/108 38/94/107
f 59/70/109 61/96/110 42/62/109
f 33/98/112 30/97/111 66/66/111
f 52/67/113 33/63/114 66/93/113
f 28/58/116 31/83/116 27/57/115
f 61/87/118 45/86/117 28/58/117
f 53/68/120 68/76/120 67/75/119
f 66/66/122 56/80/122 55/65/121
f 50/72/123 43/99/124 41/79/123
f 52/67/126 40/71/126 33/63/125
f 68/97/128 58/100/128 51/74/127
f 34/89/130 62/88/129 29/59/129
f 37/68/133 60/85/132 36/67/131
f 65/86/135 57/81/135 38/94/134
f 68/97/136 51/74/137 49/77/136
f 54/82/139 52/101/138 64/59/138
f 67/75/141 39/70/140 40/71/140
f 45/86/142 46/102/143 31/83/142
f 60/85/145 42/62/145 43/63/144
f 53/68/148 58/103/147 68/76/146
f 40/71/150 32/62/150 33/63/149
f 45/73/153 59/95/152 44/72/151
f 38/94/155 63/88/154 37/60/154
f 27/57/157 31/83/156 32/84/156
f 49/77/159 41/79/159 34/65/158
f 37/68/160 47/75/161 60/85/160
f 47/75/163 44/104/162 59/70/162
f 30/97/164 46/74/165 56/80/164
f 51/102/167 58/83/166 65/86/166
f 39/70/170 35/104/169 29/105/168
f 53/68/171 67/75/172 40/71/171
f 62/88/175 28/58/174 29/59/173
f 62/91/178 41/79/177 42/90/176
f 66/66/179 55/65/180 64/64/179
f 68/97/183 49/77/182 35/66/181
f 39/70/184 27/106/185 32/62/184
f 53/68/188 40/71/187 52/67/186
f 67/75/190 35/104/189 39/70/189
f 55/65/192 48/79/191 63/91/191
f 61/87/194 59/93/193 45/86/193
f 36/67/196 60/85/196 43/63/195
f 30/97/199 56/80/198 66/66/197
f 52/67/202 66/93/201 64/107/200
f 51/74/204 65/73/203 50/72/203
f 29/59/205 27/57/206 39/101/205
f 67/108/208 68/97/207 35/66/207
f 30/97/210 31/100/210 46/74/209
